<svg xmlns="http://www.w3.org/2000/svg" xmlns:xlink="http://www.w3.org/1999/xlink" version="1.1" x="0px" y="0px" viewBox="0 0 90 112.5" enable-background="new 0 0 90 90" xml:space="preserve"><g><path d="M64.258,45.468H47.867c-1.324,0-2.398,1.075-2.398,2.399V64.26c0,1.324,1.074,2.398,2.398,2.398h16.391   c1.326,0,2.4-1.074,2.4-2.398V47.867C66.658,46.543,65.584,45.468,64.258,45.468z"/><path d="M42.131,45.468H25.741c-1.325,0-2.399,1.075-2.399,2.399V64.26c0,1.324,1.074,2.398,2.399,2.398h16.391   c1.325,0,2.4-1.074,2.4-2.398V47.867C44.531,46.543,43.457,45.468,42.131,45.468z"/><path d="M64.258,23.341H47.867c-1.324,0-2.398,1.075-2.398,2.399v16.391c0,1.326,1.074,2.4,2.398,2.4h16.391   c1.326,0,2.4-1.074,2.4-2.4V25.74C66.658,24.416,65.584,23.341,64.258,23.341z"/><path d="M42.131,23.341H25.741c-1.325,0-2.399,1.075-2.399,2.399v16.391c0,1.326,1.074,2.4,2.399,2.4h16.391   c1.325,0,2.4-1.074,2.4-2.4V25.74C44.531,24.416,43.457,23.341,42.131,23.341z"/></g><text x="0" y="105" fill="#000000" font-size="5px" font-weight="bold" font-family="'Helvetica Neue', Helvetica, Arial-Unicode, Arial, Sans-serif">Created by Jonathan Li</text><text x="0" y="110" fill="#000000" font-size="5px" font-weight="bold" font-family="'Helvetica Neue', Helvetica, Arial-Unicode, Arial, Sans-serif">from the Noun Project</text></svg>