<svg xmlns="http://www.w3.org/2000/svg" xmlns:xlink="http://www.w3.org/1999/xlink" version="1.1" x="0px" y="0px" viewBox="0 0 90 112.5" enable-background="new 0 0 90 90" xml:space="preserve"><g><path d="M75.527,23.416H59.137c-1.324,0-2.398,1.075-2.398,2.399v16.393c0,1.324,1.074,2.398,2.398,2.398h16.391   c1.326,0,2.4-1.074,2.4-2.398V25.815C77.928,24.491,76.854,23.416,75.527,23.416z"/><path d="M53.194,45.53H36.804c-1.324,0-2.398,1.075-2.398,2.399v16.393c0,1.324,1.074,2.398,2.398,2.398h16.391   c1.326,0,2.4-1.074,2.4-2.398V47.929C55.595,46.604,54.521,45.53,53.194,45.53z"/><path d="M53.194,23.416H36.804c-1.324,0-2.398,1.075-2.398,2.399v16.393c0,1.324,1.074,2.398,2.398,2.398h16.391   c1.326,0,2.4-1.074,2.4-2.398V25.814C55.595,24.49,54.521,23.416,53.194,23.416z"/><path d="M30.861,45.53H14.47c-1.324,0-2.398,1.075-2.398,2.399v16.393c0,1.324,1.074,2.398,2.398,2.398h16.391   c1.326,0,2.4-1.074,2.4-2.398V47.929C33.261,46.604,32.187,45.53,30.861,45.53z"/></g><text x="0" y="105" fill="#000000" font-size="5px" font-weight="bold" font-family="'Helvetica Neue', Helvetica, Arial-Unicode, Arial, Sans-serif">Created by Jonathan Li</text><text x="0" y="110" fill="#000000" font-size="5px" font-weight="bold" font-family="'Helvetica Neue', Helvetica, Arial-Unicode, Arial, Sans-serif">from the Noun Project</text></svg>