<svg xmlns="http://www.w3.org/2000/svg" xmlns:xlink="http://www.w3.org/1999/xlink" version="1.1" x="0px" y="0px" viewBox="0 0 90 112.5" enable-background="new 0 0 90 90" xml:space="preserve"><g><path d="M77.68,42.666V26.275c0-1.324-1.075-2.398-2.399-2.398H58.888c-1.324,0-2.398,1.074-2.398,2.398v16.391   c0,1.326,1.074,2.4,2.398,2.4H75.28C76.604,45.066,77.68,43.992,77.68,42.666z"/><path d="M33.514,42.666V26.275c0-1.324-1.075-2.398-2.399-2.398H14.722c-1.324,0-2.398,1.074-2.398,2.398v16.391   c0,1.326,1.074,2.4,2.398,2.4h16.393C32.438,45.066,33.514,43.992,33.514,42.666z"/><path d="M55.565,65V48.609c0-1.324-1.074-2.398-2.398-2.398H36.774c-1.324,0-2.398,1.074-2.398,2.398V65   c0,1.326,1.074,2.4,2.398,2.4h16.393C54.491,67.4,55.565,66.326,55.565,65z"/><path d="M55.565,42.666V26.275c0-1.324-1.074-2.398-2.398-2.398H36.774c-1.324,0-2.398,1.074-2.398,2.398v16.391   c0,1.327,1.074,2.4,2.398,2.4h16.393C54.491,45.066,55.565,43.992,55.565,42.666z"/></g><text x="0" y="105" fill="#000000" font-size="5px" font-weight="bold" font-family="'Helvetica Neue', Helvetica, Arial-Unicode, Arial, Sans-serif">Created by Jonathan Li</text><text x="0" y="110" fill="#000000" font-size="5px" font-weight="bold" font-family="'Helvetica Neue', Helvetica, Arial-Unicode, Arial, Sans-serif">from the Noun Project</text></svg>