<svg xmlns="http://www.w3.org/2000/svg" xmlns:xlink="http://www.w3.org/1999/xlink" version="1.1" x="0px" y="0px" viewBox="0 0 90 112.5" enable-background="new 0 0 90 90" xml:space="preserve"><g><path d="M23.348,14.54v16.391c0,1.324,1.075,2.398,2.399,2.398H42.14c1.324,0,2.398-1.074,2.398-2.398V14.54   c0-1.326-1.074-2.4-2.398-2.4H25.747C24.423,12.14,23.348,13.214,23.348,14.54z"/><path d="M45.462,59.207v16.391c0,1.324,1.075,2.398,2.399,2.398h16.393c1.324,0,2.398-1.074,2.398-2.398V59.206   c0-1.326-1.074-2.4-2.398-2.4H47.861C46.537,56.806,45.462,57.88,45.462,59.207z"/><path d="M23.348,36.873v16.391c0,1.324,1.075,2.398,2.399,2.398H42.14c1.324,0,2.398-1.074,2.398-2.398V36.873   c0-1.326-1.074-2.4-2.398-2.4H25.747C24.422,34.473,23.348,35.547,23.348,36.873z"/><path d="M23.348,59.207v16.391c0,1.324,1.075,2.398,2.399,2.398h16.393c1.324,0,2.398-1.074,2.398-2.398V59.207   c0-1.327-1.074-2.4-2.398-2.4H25.747C24.422,56.807,23.348,57.881,23.348,59.207z"/></g><text x="0" y="105" fill="#000000" font-size="5px" font-weight="bold" font-family="'Helvetica Neue', Helvetica, Arial-Unicode, Arial, Sans-serif">Created by Jonathan Li</text><text x="0" y="110" fill="#000000" font-size="5px" font-weight="bold" font-family="'Helvetica Neue', Helvetica, Arial-Unicode, Arial, Sans-serif">from the Noun Project</text></svg>